HIERARCHY
ROOT Hips
{
    OFFSET 0.0 0.0 0.0
    CHANNELS 6 Xposition Yposition Zposition Zrotation Xrotation Yrotation
    JOINT LeftHipJoint
    {
        OFFSET 0.1 0.0 0.0
        CHANNELS 3 Zrotation Xrotation Yrotation
        JOINT LeftUpLeg
        {
            OFFSET 121.00647224749943 0.0 0.0
            CHANNELS 3 Zrotation Xrotation Yrotation
            JOINT LeftLeg
            {
                OFFSET 0.0 0.0 -417.5098085730092
                CHANNELS 3 Zrotation Xrotation Yrotation
                JOINT LeftFoot
                {
                    OFFSET 0.0 0.0 -400.6357127141433
                    CHANNELS 3 Zrotation Xrotation Yrotation
                    End Site
                    {
                        OFFSET 0.0 -0.1 0.0
                    }
                }
            }
        }
    }
    JOINT LowerBack
    {
        OFFSET 0.0 0.0 0.1
        CHANNELS 3 Zrotation Xrotation Yrotation
        JOINT Spine
        {
            OFFSET 0.0 0.0 216.9684525020326
            CHANNELS 3 Zrotation Xrotation Yrotation
            JOINT Spine1
            {
                OFFSET 0.0 0.0 250.3296531790163
                CHANNELS 3 Zrotation Xrotation Yrotation
                JOINT LeftShoulder
                {
                    OFFSET 0.1 0.0 0.0
                    CHANNELS 3 Zrotation Xrotation Yrotation
                    JOINT LeftArm
                    {
                        OFFSET 142.38705182274106 0.0 0.0
                        CHANNELS 3 Zrotation Xrotation Yrotation
                        JOINT LeftForeArm
                        {
                            OFFSET 258.90077865025023 0.0 0.0
                            CHANNELS 3 Zrotation Xrotation Yrotation
                            JOINT LeftHand
                            {
                                OFFSET 244.41966179083732 0.0 0.0
                                CHANNELS 3 Zrotation Xrotation Yrotation
                                End Site
                                {
                                    OFFSET 0.1 0.0 0.0
                                }
                            }
                        }
                    }
                }
                JOINT Neck
                {
                    OFFSET 0.0 0.0 0.1
                    CHANNELS 3 Zrotation Xrotation Yrotation
                    JOINT Neck1
                    {
                        OFFSET 0.0 0.0 106.17685231021605
                        CHANNELS 3 Zrotation Xrotation Yrotation
                        End Site
                        {
                            OFFSET 0.0 0.0 116.5265380768981
                        }
                    }
                }
                JOINT RightShoulder
                {
                    OFFSET -0.1 0.0 0.0
                    CHANNELS 3 Zrotation Xrotation Yrotation
                    JOINT RightArm
                    {
                        OFFSET -142.38705182274106 0.0 0.0
                        CHANNELS 3 Zrotation Xrotation Yrotation
                        JOINT RightForeArm
                        {
                            OFFSET -258.90077865025023 0.0 0.0
                            CHANNELS 3 Zrotation Xrotation Yrotation
                            JOINT RightHand
                            {
                                OFFSET -244.41966179083732 0.0 0.0
                                CHANNELS 3 Zrotation Xrotation Yrotation
                                End Site
                                {
                                    OFFSET -0.1 0.0 0.0
                                }
                            }
                        }
                    }
                }
            }
        }
    }
    JOINT RightHipJoint
    {
        OFFSET -0.1 0.0 0.0
        CHANNELS 3 Zrotation Xrotation Yrotation
        JOINT RightUpLeg
        {
            OFFSET -121.00647224749943 0.0 0.0
            CHANNELS 3 Zrotation Xrotation Yrotation
            JOINT RightLeg
            {
                OFFSET 0.0 0.0 -417.5098085730092
                CHANNELS 3 Zrotation Xrotation Yrotation
                JOINT RightFoot
                {
                    OFFSET 0.0 0.0 -400.6357127141433
                    CHANNELS 3 Zrotation Xrotation Yrotation
                    End Site
                    {
                        OFFSET 0.0 -0.1 0.0
                    }
                }
            }
        }
    }
}
MOTION
Frames: 9
Frame Time: 0.03333333333333333
0.0 0.0 816.4949874842048 23.191915855172258 0.2751405489841059 3.5928646216237357 5.38806921148701e-35 9.93923337957349e-17 -6.212020862233431e-17 -0.17002620475283667 -13.110789600967136 1.1248672172333705 0.8211578102050863 23.645728142026474 -1.7036728660514295 0.0 0.0 0.0 5.38806921148701e-35 9.93923337957349e-17 -6.212020862233431e-17 0.023772108092719596 1.8603970965445225 -1.3047532226522807 3.080217396989656 9.401374685565122e-17 -2.0138419870728551e-16 0.0 0.0 1.4908850069360235e-16 -40.22820169455969 7.716259696819614 77.26003275421138 -22.24117722392581 -3.834050745906108e-15 1.9505217137277098e-14 0.0 0.0 9.193790876105477e-16 0.0 0.0 1.4908850069360235e-16 -2.1051109042445226 -4.524687445956463 0.43089418220303194 0.0 0.0 1.4908850069360235e-16 27.79139862941439 1.9456392445207666 -70.67711119822668 28.512799081408474 1.2330417772468564e-14 -3.1329932755853946e-15 0.0 0.0 -3.1805546814635168e-15 5.38806921148701e-35 9.93923337957349e-17 -6.212020862233431e-17 -0.1358534959145273 -10.48876347714976 -1.8859845114623097 -0.45737858822075905 21.854918718514632 -1.2496379428294722 0.0 0.0 0.0
0.0 0.0 816.4949874842048 23.125673767138142 0.13057271965223233 3.6613143527318726 0.0 0.0 1.7393658414253607e-16 -0.16601122510094649 -12.91335652784626 1.0013091254044388 0.7674198299441435 23.739655594870868 -1.6278859750406405 0.0 0.0 0.0 0.0 0.0 1.7393658414253607e-16 0.024475977411357427 1.9314477297025645 -1.4212362570438786 3.020455525616232 -2.0657418961238157e-16 -2.9283437710027143e-16 -3.0173187584327256e-34 -9.93923337957349e-17 -3.4787316828507215e-16 -39.922000238518784 7.837615762280537 77.42617616464142 -22.032369656164672 6.506202121245383e-15 -8.454201610886825e-15 0.0 0.0 -2.3854160110976376e-15 -3.0173187584327256e-34 -9.93923337957349e-17 -3.4787316828507215e-16 -1.9751382387072545 -4.547650647703248 0.4804446720409319 -3.0173187584327256e-34 -9.93923337957349e-17 -3.4787316828507215e-16 27.508021680897606 2.250489592124725 -70.72365645175162 28.938926362139295 -1.5894120821157921e-15 -6.159341000492043e-15 0.0 0.0 1.5902773407317584e-15 0.0 0.0 1.7393658414253607e-16 -0.13162817669185145 -10.254473063646447 -2.003822201891737 -0.5042365581811387 21.7328837129087 -1.2197552777332916 0.0 0.0 0.0
0.0 0.0 816.4949874842048 23.149201315403246 0.06069813666691101 3.7029621930808196 1.2931366107568824e-34 -1.9878466759146977e-16 7.454425034680116e-17 -0.16336582283033665 -12.867763654231316 0.9652851017955529 0.7485374987212702 23.768179930921985 -1.6562292738997861 0.0 0.0 7.951386703658792e-16 1.2931366107568824e-34 -1.9878466759146977e-16 7.454425034680116e-17 0.024162898009759126 1.9300784707497494 -1.4952164271624604 2.8985768809792782 -9.307592193560065e-17 2.509151926084153e-16 3.1805546814635168e-15 -9.93923337957349e-17 -3.4787316828507215e-16 -39.63515659436235 7.955264440486563 77.57549806773115 -21.976091341614985 1.4551211706488224e-15 9.192402111470457e-15 -3.1805546814635168e-15 1.5379704757268521e-31 -5.5411226091122206e-15 3.1805546814635168e-15 -9.93923337957349e-17 -3.4787316828507215e-16 -1.883786050296944 -4.560494308793737 0.5050572559178436 3.1805546814635168e-15 -9.93923337957349e-17 -3.4787316828507215e-16 27.510752284195547 2.706284146236959 -70.70310401299386 29.52723999584835 -5.340593271162069e-15 4.69656299019995e-15 0.0 0.0 0.0 1.2931366107568824e-34 -1.9878466759146977e-16 7.454425034680116e-17 -0.12849277525609035 -10.132365609686595 -2.083897781350836 -0.535013543117271 21.556815103020337 -1.1833208942413516 0.0 0.0 -3.975693351829396e-16
0.0 0.0 816.4949874842048 23.16118516949074 -0.118888309697911 3.797361972136561 0.0 0.0 7.454425034680117e-17 -0.16279165172822502 -12.80269104277085 0.894664911902333 0.7303710006077552 24.13236987314931 -1.7064106473574407 1.6552148617688095e-32 -1.5902773407317582e-15 1.1927080055488186e-15 0.0 0.0 7.454425034680117e-17 0.02402727110550179 1.915406049928997 -1.6209124432337085 2.8407702576165073 2.1104220307667805e-16 4.918815233611269e-16 0.0 0.0 1.4908850069360235e-16 -39.53224647629629 8.277624184709909 77.94683379771365 -21.912229299717787 -9.368647737930822e-15 2.329328676160684e-14 0.0 0.0 -1.7890620083232284e-15 0.0 0.0 1.4908850069360235e-16 -1.8654208219869148 -4.59369310149764 0.5069950774690155 0.0 0.0 1.4908850069360235e-16 27.357300796496858 3.2547848645714685 -70.72636389339317 30.18199693587839 -3.312265566789564e-15 -1.2283474513488931e-14 0.0 0.0 1.5902773407317584e-15 0.0 0.0 7.454425034680117e-17 -0.12676772135152212 -9.975899140615722 -2.203524906633065 -0.583992762935041 21.628750836062924 -1.2370868876907875 0.0 1.4908850069360234e-15 0.0
0.0 0.0 816.4949874842048 23.212217532967937 0.053853675139240574 3.8144888478577816 0.0 0.0 1.7393658414253607e-16 -0.156363557158818 -13.116621803795459 0.9380502058156335 0.7346029125237938 24.28549049440932 -1.8726036655084775 0.0 0.0 3.9756933518293955e-16 0.0 0.0 1.7393658414253607e-16 0.021944159439282046 1.8671059879799965 -1.6262019264893317 2.830791055237997 -7.365210387590586e-18 -2.980860242148423e-16 0.0 0.0 -9.93923337957349e-17 -39.1903849010789 8.364333266818308 77.9781884509596 -21.924048261489876 -4.0436886744885584e-16 1.0450596069281355e-14 0.0 0.0 1.2424041724466863e-15 0.0 0.0 -9.93923337957349e-17 -1.9096232004383686 -4.805247016725244 0.525361565366834 0.0 0.0 -9.93923337957349e-17 26.906417190213944 3.1622063143533232 -70.50971771279829 30.54537085123603 -8.378000458871967e-16 -3.0682273652535764e-15 0.0 0.0 -3.1805546814635168e-15 0.0 0.0 1.7393658414253607e-16 -0.12276846914296856 -10.301962102053364 -2.2629027766233785 -0.6284634155709581 21.72121700892848 -1.1238644744785553 0.0 0.0 0.0
0.0 0.0 816.4949874842048 23.281679345305534 0.249189822666866 3.9009301730041464 0.0 0.0 3.851452934584727e-16 -0.15459388956210018 -13.452937566705495 0.8844691009951923 0.708087464551561 24.556204956490628 -1.9214548469438504 6.896728590703373e-34 1.987846675914698e-16 -3.975693351829396e-16 0.0 0.0 3.851452934584727e-16 0.02052264294381504 1.813369882127723 -1.7489195154886963 2.849152132525281 4.955725716262359e-16 -6.203576138139735e-17 0.0 0.0 4.969616689786745e-17 -38.6960748892396 8.609659313442954 78.18864505262445 -21.914621275676737 -6.573080595881897e-15 8.851203863750547e-15 0.0 0.0 -1.5654292572828246e-15 0.0 0.0 4.969616689786745e-17 -1.891961859292952 -4.995384036820276 0.516005774163496 0.0 0.0 4.969616689786745e-17 26.13423791281882 3.1339612882082526 -70.30786345979472 31.133195602928232 3.567194164515928e-15 -1.0898724276527825e-14 0.0 0.0 1.5902773407317584e-15 0.0 0.0 3.851452934584727e-16 -0.12088076636110641 -10.530508008394154 -2.391432369050166 -0.6898071041131418 21.726540797658785 -1.1515217642783175 0.0 0.0 0.0
0.0 0.0 816.4949874842048 23.23998929150881 0.26455101730775493 3.9421003378382293 2.0474663003650637e-34 9.93923337957349e-17 -2.3605679276487037e-16 -0.14271285288692434 -13.666599872098452 0.8715612543125822 0.6812918958437619 24.77037188107242 -1.9759765065338886 3.1805546814635168e-15 -1.987846675914698e-16 3.975693351829396e-16 2.0474663003650637e-34 9.93923337957349e-17 -2.3605679276487037e-16 0.01817871417465637 1.7675988900929172 -1.8026707789156953 2.7487949701943037 3.575956409273265e-18 1.490456090424178e-16 0.0 0.0 1.4908850069360235e-16 -38.60570623155774 8.584612920589986 78.22084411174664 -21.761597312029124 -8.862579630072598e-16 -3.813987456973773e-15 0.0 0.0 3.0811623476677818e-15 0.0 0.0 1.4908850069360235e-16 -1.8924465521135334 -5.082812343636358 0.4627028293398946 0.0 0.0 1.4908850069360235e-16 25.73019214439499 3.2282575057909493 -70.14856754751095 31.40105202665473 1.7213752508749235e-15 6.123771678695514e-15 0.0 0.0 0.0 2.0474663003650637e-34 9.93923337957349e-17 -2.3605679276487037e-16 -0.11067764193805404 -10.600526942587022 -2.4361595136566705 -0.7314090703868674 21.721911149938045 -1.091487996895878 0.0 0.0 -3.975693351829396e-16
0.0 0.0 816.4949874842048 23.14751265812053 0.20093295806117856 4.038399687992073 0.0 0.0 -2.7332891793827095e-16 -0.16355090591600815 -13.772968085945386 0.8087349816464522 0.6971059557253296 24.97399510688521 -2.071039668184761 0.0 0.0 0.0 0.0 0.0 -2.7332891793827095e-16 0.020090523701291597 1.7188218371967068 -1.9655146070637755 2.6223186183718834 6.822900964438877e-18 2.980989301871017e-16 0.0 0.0 -1.987846675914698e-16 -38.39654707351615 8.610310574650144 78.28650161028628 -21.904489037601792 -3.475383561054086e-15 -7.151661318510327e-15 0.0 0.0 -1.0933156717530838e-15 0.0 0.0 -1.987846675914698e-16 -1.7499340024377659 -5.0522232109030085 0.5422462629133331 0.0 0.0 -1.987846675914698e-16 24.821068438909972 3.355102129131095 -70.01543308820882 32.413380436622546 -3.550812391483429e-15 -1.2216651778165721e-14 6.3611093629270335e-15 6.3611093629270335e-15 -3.1805546814635168e-15 0.0 0.0 -2.7332891793827095e-16 -0.12521659824218787 -10.555203622960498 -2.544176002565284 -0.7435997534238558 21.767194038578324 -1.117264704445382 0.0 0.0 0.0
0.0 0.0 816.4949874842048 23.060852039873538 0.24631592382446382 4.200827135112078 4.741500906108568e-34 9.93923337957349e-17 -5.466578358765419e-16 -0.17771590505692672 -13.925174167318035 0.5961155729402539 0.6280607127181537 25.186681482168837 -2.0519057480421745 3.1805546814635168e-15 -1.987846675914698e-16 3.975693351829396e-16 4.741500906108568e-34 9.93923337957349e-17 -5.466578358765419e-16 0.019713781556588456 1.5703784402282783 -2.1250930839620477 2.596550897137628 2.077414626471421e-16 3.929633634888649e-16 -3.1805546814635168e-15 4.138037154422024e-33 -1.4908850069360235e-16 -37.92028910780713 8.618030234988623 78.26909136036167 -21.939150526053126 -5.3370507925314e-15 -5.894102081662805e-15 0.0 0.0 8.199867538148129e-16 -3.1805546814635168e-15 4.138037154422024e-33 -1.4908850069360235e-16 -1.7399574717869626 -5.013474086333307 0.5818217918495895 -3.1805546814635168e-15 4.138037154422024e-33 -1.4908850069360235e-16 24.32412721249221 3.4431756329239898 -69.74412805847068 33.30298401614791 3.6455454311105366e-15 1.2188718054749687e-14 0.0 0.0 -1.5902773407317584e-15 4.741500906108568e-34 9.93923337957349e-17 -5.466578358765419e-16 -0.13439068508446136 -10.549539054139188 -2.732987504385457 -0.796508567784865 21.70749436352007 -1.076632122492572 0.0 0.0 -3.975693351829396e-16
